<?xml version="1.0" encoding="utf-8"?><svg version="1.1" id="Layer_1" xmlns="http://www.w3.org/2000/svg" xmlns:xlink="http://www.w3.org/1999/xlink" x="0px" y="0px" viewBox="0 0 114.5 122.9" style="enable-background:new 0 0 114.5 122.9" xml:space="preserve"><style type="text/css">.st0{fill-rule:evenodd;clip-rule:evenodd;}</style><g><path class="st0" d="M105.4,76.3l3.8,3.8c1,1,1,2.6,0,3.6l-3.1,3.1c0.8,1.6,1.5,3.3,1.9,5.1h4c1.4,0,2.6,1.2,2.6,2.6v5.4 c0,1.4-1.2,2.6-2.6,2.6h-4.3c-0.5,1.7-1.3,3.4-2.2,4.9l2.8,2.8c1,1,1,2.6,0,3.6l-3.8,3.8c-1,1-2.6,1-3.6,0l-3.1-3.1 c-1.6,0.8-3.3,1.5-5.1,1.9v4c0,1.4-1.2,2.6-2.6,2.6h-5.4c-1.4,0-2.6-1.2-2.6-2.6V116c-1.7-0.5-3.4-1.3-4.9-2.2l-2.8,2.8 c-1,1-2.6,1-3.6,0l-3.8-3.8c-1-1-1-2.6,0-3.6l3.1-3.1c-0.8-1.6-1.5-3.3-1.9-5.1h-4c-1.4,0-2.6-1.2-2.6-2.6v-5.4 c0-1.4,1.2-2.6,2.6-2.6h4.3c0.5-1.7,1.3-3.4,2.2-4.9L68,82.8c-1-1-1-2.6,0-3.6l3.8-3.8c1-1,2.6-1,3.6,0l3.1,3.1 c1.6-0.8,3.3-1.5,5.1-1.9v-4c0-1.4,1.2-2.6,2.6-2.6h5.4c1.4,0,2.6,1.2,2.6,2.6v4.3c1.7,0.5,3.4,1.3,4.9,2.2l2.8-2.8 C102.7,75.3,104.4,75.3,105.4,76.3L105.4,76.3L105.4,76.3z M41.4,82.2c-1.4,0-2.5-1.4-2.5-3c0-1.7,1.1-3,2.5-3h12.4 c1.4,0,2.5,1.4,2.5,3c0,1.7-1.1,3-2.5,3H41.4L41.4,82.2L41.4,82.2z M45.1,112.3c1.7,0,3,1.4,3,3c0,1.7-1.4,3-3,3h-38 c-1.9,0-3.7-0.8-5-2.1c-1.3-1.3-2.1-3-2.1-5V7.1c0-2,0.8-3.7,2.1-5c1.3-1.3,3-2.1,5-2.1h86.7c1.9,0,3.7,0.8,5,2.1 c1.3,1.3,2.1,3,2.1,5v48.3c0,1.7-1.4,3-3,3c-1.7,0-3-1.4-3-3V7.1c0-0.3-0.1-0.5-0.3-0.7c-0.2-0.2-0.4-0.3-0.7-0.3H7.1 c-0.3,0-0.5,0.1-0.7,0.3C6.2,6.5,6.1,6.8,6.1,7.1v104.3c0,0.3,0.1,0.5,0.3,0.7c0.2,0.2,0.4,0.3,0.7,0.3H45.1L45.1,112.3L45.1,112.3 z M18.8,74.1h10.7c0.6,0,1,0.4,1,1v9.2c0,0.6-0.4,1-1,1H18.8c-0.6,0-1-0.4-1-1v-9.2C17.8,74.5,18.2,74.1,18.8,74.1L18.8,74.1 L18.8,74.1z M18.8,21.2h10.7c0.6,0,1,0.4,1,1v9.2c0,0.6-0.4,1-1,1H18.8c-0.6,0-1-0.4-1-1v-9.2C17.8,21.6,18.2,21.2,18.8,21.2 L18.8,21.2L18.8,21.2z M41.4,29.3c-1.4,0-2.5-1.4-2.5-3c0-1.7,1.1-3,2.5-3h34.7c1.4,0,2.5,1.4,2.5,3c0,1.7-1.1,3-2.5,3H41.4 L41.4,29.3L41.4,29.3z M21.9,57.4c-0.7,0.5-1.6,0.4-2.3-0.3c-0.1-0.1-0.1-0.1-0.2-0.2l-3.2-3.3c-0.7-0.7-0.5-1.8,0.3-2.6 c0.9-0.7,2.1-0.8,2.8-0.1l1.7,1.8l5.6-4.5c0.7-0.6,1.9-0.3,2.5,0.6c0.7,0.9,0.6,2.2-0.2,2.8L21.9,57.4L21.9,57.4L21.9,57.4z M39.7,54.8c-1.4,0-2.5-1.4-2.5-3c0-1.7,1.1-3,2.5-3h34.7c1.4,0,2.5,1.4,2.5,3c0,1.7-1.1,3-2.5,3H39.7L39.7,54.8L39.7,54.8z M88.1,85.9c5.8,0,10.6,4.7,10.6,10.6c0,5.8-4.7,10.6-10.6,10.6c-5.8,0-10.6-4.7-10.6-10.6C77.5,90.6,82.3,85.9,88.1,85.9 L88.1,85.9L88.1,85.9z" fill="#2514be"/></g></svg>