<svg width="163" height="60" viewBox="0 0 163 60" fill="none" xmlns="http://www.w3.org/2000/svg">
<path opacity="0.2" d="M12.4806 31.3455L8.72415 53.5094C8.13597 56.9857 13.5992 56.9587 18.9507 53.4437L47.4796 34.706C52.8345 31.191 54.4512 26.5944 50.507 26.0692L25.4207 22.8476C21.2674 22.3147 12.9725 26.5418 12.4806 31.3455Z" fill="#994242"/>
<path opacity="0.5" d="M45.8089 2.14015L19.5931 25.3585C15.4722 29.0087 14.5159 34.343 17.7889 35.3434L35.3298 40.6854C38.6171 41.6858 43.9217 37.6725 45.2604 33.1765L53.7585 4.59293C55.1658 -0.14268 50.15 -1.66842 45.8197 2.17493" fill="#54CC90"/>
<path opacity="0.7" d="M35.4344 57.8344L36.3978 38.4632C36.5494 35.4157 33.8719 31.5801 31.382 31.2865L18.1279 29.7028C15.638 29.4053 15.0281 32.8509 16.984 36.1457L29.4226 57.116C31.483 60.5923 35.2756 61.0404 35.4344 57.8344Z" fill="#EB956A"/>
<path opacity="0.7" d="M1.90408 19.0548L20.7802 41.6821C23.7464 45.2395 27.8312 45.792 28.423 42.7134L31.5805 26.3242C32.1722 23.2342 28.8705 18.6298 25.4027 17.6758L3.33303 11.623C-0.318769 10.6226 -1.22088 15.3119 1.88963 19.0548" fill="#2514BE"/>
<path d="M83.7545 24.1485C83.6178 22.9947 83.0637 22.099 82.0921 21.4614C81.1205 20.8238 79.9287 20.505 78.5168 20.505C77.4845 20.505 76.5812 20.672 75.8069 21.0059C75.0403 21.3399 74.4406 21.7992 74.0079 22.3837C73.5828 22.9682 73.3703 23.6324 73.3703 24.3763C73.3703 24.9987 73.5183 25.5338 73.8144 25.9817C74.118 26.422 74.5051 26.7901 74.9758 27.0862C75.4464 27.3746 75.9398 27.6137 76.456 27.8035C76.9721 27.9857 77.4465 28.1337 77.8792 28.2475L80.2475 28.8852C80.8548 29.0446 81.5304 29.2647 82.2743 29.5456C83.0258 29.8264 83.7431 30.2098 84.4263 30.6956C85.117 31.1738 85.6863 31.7886 86.1342 32.5401C86.582 33.2916 86.806 34.2139 86.806 35.307C86.806 36.567 86.4758 37.7057 85.8154 38.7228C85.1626 39.74 84.2061 40.5484 82.9461 41.1481C81.6936 41.7477 80.1716 42.0476 78.3802 42.0476C76.7102 42.0476 75.2642 41.7781 74.0421 41.2392C72.8276 40.7002 71.8711 39.9487 71.1728 38.9847C70.482 38.0207 70.0911 36.901 70 35.6258H72.9149C72.9908 36.5063 73.2868 37.235 73.803 37.8119C74.3267 38.3812 74.9871 38.8063 75.7842 39.0872C76.5888 39.3604 77.4541 39.4971 78.3802 39.4971C79.4581 39.4971 80.4259 39.3225 81.2837 38.9733C82.1414 38.6165 82.8208 38.1231 83.3218 37.4931C83.8228 36.8555 84.0733 36.1116 84.0733 35.2614C84.0733 34.4872 83.857 33.8571 83.4243 33.3713C82.9916 32.8855 82.4223 32.4908 81.7164 32.1872C81.0104 31.8835 80.2475 31.6179 79.4277 31.3901L76.5584 30.5703C74.7366 30.0466 73.2944 29.2989 72.2317 28.3272C71.169 27.3556 70.6376 26.0842 70.6376 24.5129C70.6376 23.2073 70.9906 22.0687 71.6965 21.097C72.4101 20.1178 73.3665 19.3587 74.5659 18.8198C75.7728 18.2733 77.1201 18 78.6079 18C80.1109 18 81.4469 18.2695 82.6159 18.8084C83.7848 19.3398 84.7109 20.0685 85.3941 20.9946C86.0848 21.9206 86.4492 22.972 86.4872 24.1485H83.7545Z" fill="#2514BE"/>
<path d="M92.7312 41.6377V18.3188H100.61C102.44 18.3188 103.935 18.649 105.097 19.3094C106.266 19.9622 107.131 20.8465 107.693 21.9624C108.254 23.0782 108.535 24.3231 108.535 25.697C108.535 27.071 108.254 28.3197 107.693 29.4431C107.139 30.5665 106.281 31.4622 105.119 32.1302C103.958 32.7906 102.47 33.1208 100.656 33.1208H95.0084V30.6159H100.565C101.817 30.6159 102.823 30.3995 103.582 29.9669C104.341 29.5342 104.892 28.9497 105.233 28.2134C105.582 27.4695 105.757 26.6307 105.757 25.697C105.757 24.7634 105.582 23.9284 105.233 23.1921C104.892 22.4558 104.338 21.8789 103.571 21.4614C102.804 21.0363 101.787 20.8238 100.519 20.8238H95.555V41.6377H92.7312Z" fill="#2514BE"/>
<path d="M117.19 18.3188V41.6377H114.367V18.3188H117.19Z" fill="#2514BE"/>
<path d="M142.899 25.606H140.075C139.908 24.7937 139.616 24.0802 139.198 23.4654C138.789 22.8505 138.288 22.3343 137.696 21.9168C137.111 21.4918 136.462 21.1729 135.748 20.9604C135.035 20.7479 134.291 20.6416 133.517 20.6416C132.105 20.6416 130.826 20.9984 129.68 21.7119C128.541 22.4254 127.634 23.4767 126.958 24.8659C126.29 26.255 125.956 27.9591 125.956 29.9782C125.956 31.9974 126.29 33.7015 126.958 35.0906C127.634 36.4797 128.541 37.5311 129.68 38.2446C130.826 38.9581 132.105 39.3149 133.517 39.3149C134.291 39.3149 135.035 39.2086 135.748 38.9961C136.462 38.7835 137.111 38.4685 137.696 38.051C138.288 37.6259 138.789 37.106 139.198 36.4911C139.616 35.8687 139.908 35.1551 140.075 34.3505H142.899C142.686 35.5423 142.299 36.6088 141.738 37.55C141.176 38.4913 140.478 39.2921 139.643 39.9525C138.808 40.6053 137.87 41.1025 136.83 41.4441C135.798 41.7857 134.693 41.9565 133.517 41.9565C131.528 41.9565 129.759 41.4707 128.211 40.4991C126.662 39.5274 125.444 38.1459 124.556 36.3545C123.668 34.5631 123.224 32.4377 123.224 29.9782C123.224 27.5188 123.668 25.3934 124.556 23.602C125.444 21.8106 126.662 20.429 128.211 19.4574C129.759 18.4858 131.528 18 133.517 18C134.693 18 135.798 18.1708 136.83 18.5124C137.87 18.854 138.808 19.355 139.643 20.0154C140.478 20.6682 141.176 21.4652 141.738 22.4064C142.299 23.3401 142.686 24.4066 142.899 25.606Z" fill="#2514BE"/>
<path d="M148.745 41.6377V18.3188H162.818V20.8238H151.568V28.703H162.089V31.2079H151.568V39.1327H163V41.6377H148.745Z" fill="#2514BE"/>
</svg>
