<svg width="16" height="16" viewBox="0 0 16 16" fill="none" xmlns="http://www.w3.org/2000/svg">
<path d="M8.00005 16C6.7905 16.0034 5.59623 15.7297 4.50886 15.1999C4.1109 15.0064 3.72961 14.7803 3.36887 14.5239L3.25927 14.4439C2.26713 13.7116 1.45597 12.7617 0.888076 11.6672C0.300667 10.5343 -0.00399416 9.27609 3.95382e-05 7.99997C3.95382e-05 3.58171 3.58179 0 8.00005 0C12.4183 0 16.0001 3.58171 16.0001 7.99997C16.004 9.27548 15.6997 10.5331 15.1128 11.6656C14.5457 12.7595 13.7357 13.7091 12.7448 14.4415C12.371 14.7151 11.9744 14.956 11.5592 15.1615L11.4952 15.1935C10.4072 15.7261 9.21145 16.002 8.00005 16ZM8.00005 11.9999C6.80123 11.9976 5.70219 12.6672 5.15446 13.7335C6.94757 14.6217 9.05253 14.6217 10.8456 13.7335V13.7295C10.2972 12.6643 9.19814 11.9963 8.00005 11.9999ZM8.00005 10.4C9.73293 10.4022 11.3308 11.336 12.1832 12.8447L12.1952 12.8343L12.2064 12.8247L12.1928 12.8367L12.1848 12.8432C14.208 11.0952 14.9315 8.27384 13.9989 5.76806C13.0664 3.26229 10.6745 1.60025 8.00085 1.60025C5.32718 1.60025 2.93526 3.26229 2.00275 5.76806C1.07024 8.27384 1.79367 11.0952 3.81686 12.8432C4.66987 11.3352 6.26754 10.4021 8.00005 10.4ZM8.00005 9.59996C6.23274 9.59996 4.80006 8.16728 4.80006 6.39997C4.80006 4.63267 6.23274 3.19999 8.00005 3.19999C9.76735 3.19999 11.2 4.63267 11.2 6.39997C11.2 7.24866 10.8629 8.06259 10.2628 8.66271C9.66267 9.26282 8.84874 9.59996 8.00005 9.59996ZM8.00005 4.79998C7.1164 4.79998 6.40005 5.51632 6.40005 6.39997C6.40005 7.28363 7.1164 7.99997 8.00005 7.99997C8.8837 7.99997 9.60004 7.28363 9.60004 6.39997C9.60004 5.51632 8.8837 4.79998 8.00005 4.79998Z" fill="#595959"/>
</svg>
