<svg width="12" height="12" viewBox="0 0 12 12" fill="none" xmlns="http://www.w3.org/2000/svg">
<path fill-rule="evenodd" clip-rule="evenodd" d="M11.6647 0.335182C12.1117 0.782104 12.1117 1.50673 11.6648 1.95367L1.95392 11.6648C1.50698 12.1117 0.782351 12.1117 0.3354 11.6648C-0.111551 11.2179 -0.111566 10.4933 0.335364 10.0463L10.0462 0.335217C10.4932 -0.111725 11.2178 -0.111741 11.6647 0.335182Z" fill="#E31B28"/>
<path fill-rule="evenodd" clip-rule="evenodd" d="M0.335206 0.335306C0.782146 -0.111627 1.50678 -0.111627 1.95372 0.335306L11.6648 10.0462C12.1117 10.4931 12.1117 11.2178 11.6648 11.6647C11.2179 12.1116 10.4932 12.1116 10.0463 11.6647L0.335206 1.95379C-0.111735 1.50686 -0.111735 0.782239 0.335206 0.335306Z" fill="#E31B28"/>
</svg>
