<svg width="18" height="14" viewBox="0 0 18 14" fill="none" xmlns="http://www.w3.org/2000/svg">
<path fill-rule="evenodd" clip-rule="evenodd" d="M2.20503 0.205025C2.47839 -0.0683417 2.92161 -0.0683417 3.19497 0.205025L15.795 12.805C16.0683 13.0784 16.0683 13.5216 15.795 13.795C15.5216 14.0683 15.0784 14.0683 14.805 13.795L2.20503 1.19497C1.93166 0.921608 1.93166 0.478392 2.20503 0.205025Z" fill="#6165DE"/>
<path d="M17.9588 7.27945C18.0215 7.08219 18.0215 6.81918 17.896 6.62192C16.9857 4.87945 15.6988 3.46575 14.1607 2.51233C12.6227 1.52603 10.8335 1 9.01294 1C7.161 1 5.40323 1.52603 3.86517 2.51233C2.32712 3.46575 1.00879 4.87945 0.098512 6.62192C0.098512 6.65479 0.0671231 6.68767 0.0671231 6.75342C-0.0270434 6.95069 -0.0270434 7.18082 0.098512 7.41096C1.00879 9.12055 2.32712 10.5342 3.86517 11.4877C5.40323 12.474 7.161 13 8.98155 13C10.8335 13 12.5913 12.474 14.1293 11.4877C15.6674 10.5342 16.9857 9.12055 17.896 7.41096C17.9274 7.34521 17.9274 7.31233 17.9588 7.27945ZM13.376 3.86027C14.5688 4.61644 15.6046 5.66849 16.3893 6.98356C15.6046 8.33151 14.5688 9.38356 13.376 10.1726C12.0577 10.9945 10.551 11.4548 8.98155 11.4548C7.4435 11.4548 5.93684 10.9945 4.61851 10.1726C3.42573 9.38356 2.3899 8.33151 1.60518 7.01644C2.3899 5.70137 3.42573 4.61644 4.64989 3.86027C5.93684 3.03836 7.4435 2.57808 9.01294 2.57808C10.5824 2.57808 12.0577 3.03836 13.376 3.86027Z" fill="#6165DE"/>
<path d="M9.01463 4C8.16585 4 7.43415 4.35122 6.87805 4.87805C6.35122 5.43415 6 6.16585 6 7.01463C6 7.83415 6.35122 8.56585 6.87805 9.12195C7.43415 9.64878 8.16585 10 9.01463 10C9.83415 10 10.5659 9.64878 11.122 9.12195C11.6488 8.56585 12 7.83415 12 7.01463C12 6.19512 11.6488 5.43415 11.122 4.87805C10.5659 4.35122 9.83415 4 9.01463 4ZM7.87317 5.87317C8.16585 5.58049 8.57561 5.40488 9.01463 5.40488C9.45366 5.40488 9.83415 5.58049 10.1268 5.87317C10.4195 6.16585 10.5951 6.57561 10.5951 7.01463C10.5951 7.45366 10.4195 7.83415 10.1268 8.12683C9.83415 8.41951 9.45366 8.59512 9.01463 8.59512C8.57561 8.59512 8.16585 8.41951 7.87317 8.12683C7.58049 7.83415 7.40488 7.45366 7.40488 7.01463C7.40488 6.57561 7.58049 6.16585 7.87317 5.87317Z" fill="#6165DE"/>
</svg>
