<svg width="16" height="14" viewBox="0 0 16 14" fill="none" xmlns="http://www.w3.org/2000/svg">
<path d="M12.9584 13H3.04173C2.87839 13 2.75006 12.8491 2.75006 12.6571V5.11425C2.75006 4.92225 2.87839 4.7714 3.04173 4.7714C3.20506 4.7714 3.33339 4.92225 3.33339 5.11425V12.3142H12.6667V5.11425C12.6667 4.92225 12.7951 4.7714 12.9584 4.7714C13.1217 4.7714 13.2501 4.92225 13.2501 5.11425V12.6571C13.2501 12.8491 13.1217 13 12.9584 13Z" fill="#6165DE"/>
<path d="M1.29199 6.75753C1.19863 6.75753 1.1111 6.71515 1.05275 6.63039C0.959385 6.49115 0.994396 6.30347 1.12277 6.20661L7.83873 1.05449C7.93793 0.981838 8.07213 0.981838 8.17133 1.05449L14.8756 6.20661C15.0098 6.30347 15.039 6.49115 14.9456 6.63039C14.8523 6.76964 14.6714 6.79991 14.5372 6.70304L8.00211 1.672L1.45537 6.70304C1.40869 6.73937 1.35034 6.75753 1.29199 6.75753Z" fill="#6165DE"/>
<path d="M9.74988 13C9.60988 13 9.49988 12.8659 9.49988 12.6951V9.22599L8.00988 8.17122L6.49988 9.22599V12.6951C6.49988 12.8659 6.38988 13 6.24988 13C6.10988 13 5.99988 12.8659 5.99988 12.6951V9.04918C5.99988 8.93943 6.04988 8.84188 6.12488 8.78701L7.88488 7.55543C7.96488 7.50056 8.05988 7.50056 8.13488 7.55543L9.87488 8.78701C9.94988 8.84188 9.99988 8.93943 9.99988 9.04918V12.6951C9.99988 12.8659 9.88988 13 9.74988 13Z" fill="#6165DE"/>
<path d="M12.9584 13H3.04173C2.87839 13 2.75006 12.8491 2.75006 12.6571V5.11425C2.75006 4.92225 2.87839 4.7714 3.04173 4.7714C3.20506 4.7714 3.33339 4.92225 3.33339 5.11425V12.3142H12.6667V5.11425C12.6667 4.92225 12.7951 4.7714 12.9584 4.7714C13.1217 4.7714 13.2501 4.92225 13.2501 5.11425V12.6571C13.2501 12.8491 13.1217 13 12.9584 13Z" stroke="#6165DE" stroke-width="0.5"/>
<path d="M1.29199 6.75753C1.19863 6.75753 1.1111 6.71515 1.05275 6.63039C0.959385 6.49115 0.994396 6.30347 1.12277 6.20661L7.83873 1.05449C7.93793 0.981838 8.07213 0.981838 8.17133 1.05449L14.8756 6.20661C15.0098 6.30347 15.039 6.49115 14.9456 6.63039C14.8523 6.76964 14.6714 6.79991 14.5372 6.70304L8.00211 1.672L1.45537 6.70304C1.40869 6.73937 1.35034 6.75753 1.29199 6.75753Z" stroke="#6165DE" stroke-width="0.5"/>
<path d="M9.74988 13C9.60988 13 9.49988 12.8659 9.49988 12.6951V9.22599L8.00988 8.17122L6.49988 9.22599V12.6951C6.49988 12.8659 6.38988 13 6.24988 13C6.10988 13 5.99988 12.8659 5.99988 12.6951V9.04918C5.99988 8.93943 6.04988 8.84188 6.12488 8.78701L7.88488 7.55543C7.96488 7.50056 8.05988 7.50056 8.13488 7.55543L9.87488 8.78701C9.94988 8.84188 9.99988 8.93943 9.99988 9.04918V12.6951C9.99988 12.8659 9.88988 13 9.74988 13Z" stroke="#6165DE" stroke-width="0.5"/>
</svg>
