<svg width="14" height="18" viewBox="0 0 14 18" fill="none" xmlns="http://www.w3.org/2000/svg">
<path d="M7.80717 13.2174H3.42662C3.19392 13.2174 3 13.4348 3 13.6956C3 13.9565 3.19392 14.1739 3.42662 14.1739H7.80717C8.03987 14.1739 8.23379 13.9565 8.23379 13.6956C8.23379 13.4348 8.03987 13.2174 7.80717 13.2174Z" fill="#2514BE"/>
<path d="M10.5734 10.4131H3.42661C3.19392 10.4131 3 10.6304 3 10.8913C3 11.1522 3.19392 11.3696 3.42661 11.3696H10.5734C10.8061 11.3696 11 11.1522 11 10.8913C11 10.6087 10.8061 10.4131 10.5734 10.4131Z" fill="#2514BE"/>
<path d="M4.16353 7.60868H4.91981C5.01676 7.60868 5.07494 7.52173 5.07494 7.43477V6.08694C5.07494 5.97825 4.99737 5.91303 4.91981 5.91303H4.16353C4.06658 5.91303 4.0084 5.99998 4.0084 6.08694V7.43477C4.0084 7.52173 4.08597 7.60868 4.16353 7.60868Z" fill="#2514BE"/>
<path d="M6.9665 7.60868H7.72277C7.81973 7.60868 7.8779 7.52173 7.8779 7.43477V5.10868C7.8779 4.99998 7.80033 4.93477 7.72277 4.93477H6.9665C6.86954 4.93477 6.81136 5.02172 6.81136 5.10868V7.41303C6.81136 7.52173 6.88893 7.60868 6.9665 7.60868Z" fill="#2514BE"/>
<path d="M9.76962 7.6087H10.5259C10.6229 7.6087 10.681 7.52174 10.681 7.43479V4.17391C10.681 4.08696 10.6035 4 10.5259 4H9.76962C9.67267 4 9.61449 4.08696 9.61449 4.17391V7.43479C9.61449 7.52174 9.69206 7.6087 9.76962 7.6087Z" fill="#2514BE"/>
<path d="M11.9278 1H2.07217C1.48087 1 1 1.46644 1 2.03999V15.9598C1 16.5333 1.4811 17 2.07217 17H11.9278C12.5189 17 13 16.5333 13 15.9598V2.03999C12.9998 1.46644 12.5189 1 11.9278 1ZM12.1753 15.9596C12.1753 16.092 12.0641 16.1996 11.9278 16.1996H2.07217C1.93562 16.1996 1.82474 16.092 1.82474 15.9596V2.03977C1.82474 1.90732 1.93562 1.79977 2.07217 1.79977H11.9278C12.0641 1.79977 12.1753 1.90732 12.1753 2.03977V15.9596Z" fill="#2514BE"/>
<path d="M7.80717 13.2174H3.42662C3.19392 13.2174 3 13.4348 3 13.6956C3 13.9565 3.19392 14.1739 3.42662 14.1739H7.80717C8.03987 14.1739 8.23379 13.9565 8.23379 13.6956C8.23379 13.4348 8.03987 13.2174 7.80717 13.2174Z" stroke="#2514BE" stroke-width="0.3"/>
<path d="M10.5734 10.4131H3.42661C3.19392 10.4131 3 10.6304 3 10.8913C3 11.1522 3.19392 11.3696 3.42661 11.3696H10.5734C10.8061 11.3696 11 11.1522 11 10.8913C11 10.6087 10.8061 10.4131 10.5734 10.4131Z" stroke="#2514BE" stroke-width="0.3"/>
<path d="M4.16353 7.60868H4.91981C5.01676 7.60868 5.07494 7.52173 5.07494 7.43477V6.08694C5.07494 5.97825 4.99737 5.91303 4.91981 5.91303H4.16353C4.06658 5.91303 4.0084 5.99998 4.0084 6.08694V7.43477C4.0084 7.52173 4.08597 7.60868 4.16353 7.60868Z" stroke="#2514BE" stroke-width="0.3"/>
<path d="M6.9665 7.60868H7.72277C7.81973 7.60868 7.8779 7.52173 7.8779 7.43477V5.10868C7.8779 4.99998 7.80033 4.93477 7.72277 4.93477H6.9665C6.86954 4.93477 6.81136 5.02172 6.81136 5.10868V7.41303C6.81136 7.52173 6.88893 7.60868 6.9665 7.60868Z" stroke="#2514BE" stroke-width="0.3"/>
<path d="M9.76962 7.6087H10.5259C10.6229 7.6087 10.681 7.52174 10.681 7.43479V4.17391C10.681 4.08696 10.6035 4 10.5259 4H9.76962C9.67267 4 9.61449 4.08696 9.61449 4.17391V7.43479C9.61449 7.52174 9.69206 7.6087 9.76962 7.6087Z" stroke="#2514BE" stroke-width="0.3"/>
<path d="M11.9278 1H2.07217C1.48087 1 1 1.46644 1 2.03999V15.9598C1 16.5333 1.4811 17 2.07217 17H11.9278C12.5189 17 13 16.5333 13 15.9598V2.03999C12.9998 1.46644 12.5189 1 11.9278 1ZM12.1753 15.9596C12.1753 16.092 12.0641 16.1996 11.9278 16.1996H2.07217C1.93562 16.1996 1.82474 16.092 1.82474 15.9596V2.03977C1.82474 1.90732 1.93562 1.79977 2.07217 1.79977H11.9278C12.0641 1.79977 12.1753 1.90732 12.1753 2.03977V15.9596Z" stroke="#2514BE" stroke-width="0.3"/>
</svg>
