<svg width="18" height="18" viewBox="0 0 18 18" fill="none" xmlns="http://www.w3.org/2000/svg">
<path d="M8.73828 16.9958C8.82719 16.9986 8.91578 17 9.00422 17C11.1412 17 13.14 16.1737 14.6569 14.6569C16.2365 13.077 17.0672 10.9751 16.9958 8.73822C16.8615 4.53553 13.4644 1.13832 9.26172 1.0041C7.02798 0.934095 4.92283 1.76332 3.34315 3.34302C1.76346 4.92288 0.932843 7.02477 1.00425 9.26166C1.13847 13.4643 4.53564 16.8616 8.73828 16.9958ZM3.02157 13.28H5.63956C6.01194 14.49 6.54046 15.473 7.17259 16.1242C5.47624 15.6889 4.01568 14.6645 3.02157 13.28ZM2.59973 5.35991H5.469C5.21724 6.37334 5.06927 7.50215 5.04634 8.67994H1.64901C1.6985 7.49655 2.02407 6.3666 2.59973 5.35991ZM16.3497 8.67994H12.9536C12.931 7.48096 12.7841 6.35781 12.5374 5.35991H15.3925C15.957 6.3473 16.2984 7.47641 16.3497 8.67994ZM15.4003 12.64H12.531C12.7828 11.6265 12.9307 10.4977 12.9537 9.31994H16.351C16.3015 10.5033 15.9759 11.6333 15.4003 12.64ZM8.68 13.28V16.3168C7.72479 16.1024 6.8737 14.9448 6.32456 13.28H8.68ZM6.134 12.64C5.87165 11.6465 5.71128 10.5152 5.68747 9.31994H8.68V12.64H6.134ZM9.32 16.322V13.28H11.6878C11.337 14.3492 10.8538 15.2215 10.2692 15.7762C9.96168 16.0682 9.64373 16.2493 9.32 16.322ZM9.32 12.64V9.31994H12.3141C12.2908 10.5106 12.1358 11.6417 11.8753 12.64H9.32ZM12.3125 8.67994H9.32V5.35991H11.866C12.1283 6.35334 12.2887 7.48471 12.3125 8.67994ZM9.32 4.71991V1.68307C10.2752 1.89744 11.1263 3.05505 11.6754 4.71991H9.32ZM8.68 1.67588V4.71991H6.31216C6.663 3.6507 7.14618 2.77841 7.73079 2.22364C8.03842 1.93166 8.35627 1.74857 8.68 1.67588ZM8.68 5.35991V8.67994H5.68591C5.70915 7.4893 5.86419 6.35822 6.12474 5.35991H8.68ZM5.0464 9.31994C5.06902 10.5189 5.21589 11.6421 5.46257 12.64H2.60747C2.04299 11.6526 1.70163 10.5235 1.65028 9.31994H5.0464ZM14.2042 14.2042C13.2473 15.1612 12.0816 15.8169 10.8099 16.1361C11.4542 15.4775 11.982 14.4828 12.3528 13.28H14.9888C14.7549 13.605 14.4939 13.9145 14.2042 14.2042ZM14.9784 4.71991H12.3604C11.9881 3.50992 11.4595 2.52684 10.8274 1.87565C12.5238 2.31096 13.9843 3.33534 14.9784 4.71991ZM3.7958 3.79568C4.75009 2.84126 5.91415 2.19254 7.18192 1.87236C6.54136 2.53096 6.01644 3.52222 5.64724 4.71991H3.01123C3.24506 4.39484 3.50609 4.08535 3.7958 3.79568Z" fill="#2514BE"/>
</svg>
