<svg width="14" height="18" viewBox="0 0 14 18" fill="none" xmlns="http://www.w3.org/2000/svg">
<path d="M12.1423 1L1.85773 1.00006C1.3847 1.00006 1 1.37321 1 1.83205V16.1679C1 16.6267 1.38488 17.0001 1.85773 17.0001L12.1423 17C12.6151 17 13 16.6267 13 16.1678V1.83199C12.9998 1.37315 12.6151 1 12.1423 1ZM12.3402 16.1677C12.3402 16.2736 12.2513 16.3597 12.1423 16.3597L1.85773 16.3597C1.7485 16.3597 1.65979 16.2737 1.65979 16.1677V1.83187C1.65979 1.72591 1.7485 1.63987 1.85773 1.63987L12.1423 1.63982C12.2513 1.63982 12.3402 1.72586 12.3402 1.83181V16.1677Z" fill="#2514BE"/>
<path d="M10.6371 10.6742H3.36312C3.16256 10.6742 3 10.8325 3 11.0274C3 11.2223 3.16256 11.3806 3.36312 11.3806H10.6371C10.8374 11.3806 11 11.2223 11 11.0274C11 10.8325 10.8374 10.6742 10.6371 10.6742Z" fill="#2514BE"/>
<path d="M9.12405 13.2938H4.87612C4.67557 13.2938 4.513 13.4519 4.513 13.6468C4.513 13.8419 4.67557 14 4.87612 14H9.12405C9.32444 14 9.487 13.8419 9.487 13.6468C9.487 13.4519 9.32444 13.2938 9.12405 13.2938Z" fill="#2514BE"/>
<path d="M5.05958 8.66208C5.58806 8.98863 6.22825 9.15047 7.00004 9.15047C7.77824 9.15047 8.42669 8.9838 8.94585 8.66208C9.01034 8.6222 9.13306 8.55782 9.15736 8.50972C9.20779 8.41011 9.19786 8.44999 9.20076 8.32195C9.22338 7.36931 8.39016 7.43798 7.81843 7.24485C7.73545 7.21677 7.6008 7.1515 7.57467 7.06727C7.55129 6.99287 7.57467 6.88182 7.55832 6.78185C7.69647 6.57566 7.78496 6.31153 7.84013 6.00805C7.88308 5.95208 7.9358 5.9147 7.97844 5.80508C8.00076 5.74857 8.08573 5.52914 8.057 5.45922C8.04232 5.42345 8.01008 5.40539 7.98654 5.38643C8.14258 4.52608 7.59408 3.94666 6.88633 4.00389C6.28709 4.05218 5.88332 4.57651 5.99718 5.39287C5.94537 5.39108 5.91832 5.43347 5.90517 5.46566C5.87721 5.53325 5.95668 5.70976 5.98342 5.77986C6.00176 5.82779 6.03645 5.86946 6.06488 5.90665C6.09652 5.9485 6.11547 5.9798 6.13289 6.02093C6.15826 6.08084 6.15994 6.17132 6.18164 6.25555C6.22183 6.41114 6.27487 6.53685 6.33875 6.6615C6.371 6.72445 6.42846 6.80188 6.43625 6.84552C6.44955 6.91955 6.44053 7.01755 6.42555 7.06119C6.371 7.21838 6.05006 7.28473 5.86192 7.34034C5.33176 7.49664 4.76905 7.53867 4.79962 8.32856C4.80481 8.46251 4.79641 8.42978 4.84837 8.51651C4.88046 8.56963 4.99279 8.62095 5.05958 8.66208Z" fill="#2514BE"/>
<path d="M12.1423 1L1.85773 1.00006C1.3847 1.00006 1 1.37321 1 1.83205V16.1679C1 16.6267 1.38488 17.0001 1.85773 17.0001L12.1423 17C12.6151 17 13 16.6267 13 16.1678V1.83199C12.9998 1.37315 12.6151 1 12.1423 1ZM12.3402 16.1677C12.3402 16.2736 12.2513 16.3597 12.1423 16.3597L1.85773 16.3597C1.7485 16.3597 1.65979 16.2737 1.65979 16.1677V1.83187C1.65979 1.72591 1.7485 1.63987 1.85773 1.63987L12.1423 1.63982C12.2513 1.63982 12.3402 1.72586 12.3402 1.83181V16.1677Z" stroke="#2514BE" stroke-width="0.3"/>
<path d="M10.6371 10.6742H3.36312C3.16256 10.6742 3 10.8325 3 11.0274C3 11.2223 3.16256 11.3806 3.36312 11.3806H10.6371C10.8374 11.3806 11 11.2223 11 11.0274C11 10.8325 10.8374 10.6742 10.6371 10.6742Z" stroke="#2514BE" stroke-width="0.3"/>
<path d="M9.12405 13.2938H4.87612C4.67557 13.2938 4.513 13.4519 4.513 13.6468C4.513 13.8419 4.67557 14 4.87612 14H9.12405C9.32444 14 9.487 13.8419 9.487 13.6468C9.487 13.4519 9.32444 13.2938 9.12405 13.2938Z" stroke="#2514BE" stroke-width="0.3"/>
<path d="M5.05958 8.66208C5.58806 8.98863 6.22825 9.15047 7.00004 9.15047C7.77824 9.15047 8.42669 8.9838 8.94585 8.66208C9.01034 8.6222 9.13306 8.55782 9.15736 8.50972C9.20779 8.41011 9.19786 8.44999 9.20076 8.32195C9.22338 7.36931 8.39016 7.43798 7.81843 7.24485C7.73545 7.21677 7.6008 7.1515 7.57467 7.06727C7.55129 6.99287 7.57467 6.88182 7.55832 6.78185C7.69647 6.57566 7.78496 6.31153 7.84013 6.00805C7.88308 5.95208 7.9358 5.9147 7.97844 5.80508C8.00076 5.74857 8.08573 5.52914 8.057 5.45922C8.04232 5.42345 8.01008 5.40539 7.98654 5.38643C8.14258 4.52608 7.59408 3.94666 6.88633 4.00389C6.28709 4.05218 5.88332 4.57651 5.99718 5.39287C5.94537 5.39108 5.91832 5.43347 5.90517 5.46566C5.87721 5.53325 5.95668 5.70976 5.98342 5.77986C6.00176 5.82779 6.03645 5.86946 6.06488 5.90665C6.09652 5.9485 6.11547 5.9798 6.13289 6.02093C6.15826 6.08084 6.15994 6.17132 6.18164 6.25555C6.22183 6.41114 6.27487 6.53685 6.33875 6.6615C6.371 6.72445 6.42846 6.80188 6.43625 6.84552C6.44955 6.91955 6.44053 7.01755 6.42555 7.06119C6.371 7.21838 6.05006 7.28473 5.86192 7.34034C5.33176 7.49664 4.76905 7.53867 4.79962 8.32856C4.80481 8.46251 4.79641 8.42978 4.84837 8.51651C4.88046 8.56963 4.99279 8.62095 5.05958 8.66208Z" stroke="#2514BE" stroke-width="0.3"/>
</svg>
