<svg width="12" height="16" viewBox="0 0 12 16" fill="none" xmlns="http://www.w3.org/2000/svg">
<path d="M11.5329 15.0784H0.928302V0.921595H11.0687V7.1424C11.0689 7.26448 11.1179 7.38149 11.2049 7.46774C11.292 7.554 11.4099 7.60244 11.5329 7.60244C11.6558 7.60244 11.7738 7.554 11.8608 7.46774C11.9478 7.38149 11.9968 7.26448 11.997 7.1424V0.4608C11.997 0.33859 11.9481 0.221386 11.8611 0.134971C11.774 0.0485554 11.656 5.61628e-06 11.5329 0H0.464151C0.341053 5.61628e-06 0.222997 0.0485554 0.135953 0.134971C0.0489092 0.221386 5.98991e-06 0.33859 0 0.4608V15.5392C5.98991e-06 15.6614 0.0489092 15.7786 0.135953 15.865C0.222997 15.9514 0.341053 16 0.464151 16H11.5329C11.5939 16.0001 11.6543 15.9883 11.7107 15.9651C11.7671 15.942 11.8184 15.9081 11.8616 15.8653C11.9048 15.8225 11.939 15.7717 11.9624 15.7157C11.9858 15.6598 11.9978 15.5998 11.9978 15.5392C11.9978 15.4786 11.9858 15.4186 11.9624 15.3627C11.939 15.3067 11.9048 15.2559 11.8616 15.2131C11.8184 15.1703 11.7671 15.1364 11.7107 15.1133C11.6543 15.0901 11.5939 15.0783 11.5329 15.0784Z" fill="#2514BE"/>
<path d="M9.9017 12.5407C9.86233 12.5395 9.82311 12.5463 9.7863 12.5605C9.74949 12.5747 9.7158 12.5961 9.68716 12.6236C9.65852 12.651 9.63549 12.6839 9.6194 12.7204C9.6033 12.7568 9.59445 12.7962 9.59335 12.8361C9.58639 13.082 9.40076 13.2856 9.26251 13.377C9.26236 13.3733 9.26214 13.3697 9.262 13.3662C9.25189 13.1658 9.23798 12.8913 9.02958 12.728C8.65707 12.4363 8.22028 12.81 7.79813 13.1717C7.66214 13.293 7.5193 13.4062 7.37034 13.5107C7.37984 13.3596 7.39685 13.2091 7.4213 13.0597C7.49138 12.5787 7.56388 12.0813 7.28891 11.7727C6.8423 11.2715 4.12163 11.631 2.37723 12.9746C2.31388 13.0234 2.27224 13.0957 2.26146 13.1756C2.25068 13.2556 2.27164 13.3366 2.31975 13.4008C2.36786 13.4651 2.43916 13.5073 2.51797 13.5183C2.59678 13.5292 2.67665 13.5079 2.74 13.4591C4.7021 11.9479 6.84113 12.1776 6.84391 12.1808C6.92908 12.2764 6.86325 12.728 6.82788 12.9707C6.76014 13.4352 6.69622 13.874 7.00062 14.0872C7.07785 14.1431 7.17035 14.173 7.26519 14.1729C7.55919 14.1729 7.87626 13.9012 8.1852 13.6365C8.33264 13.5032 8.48949 13.3811 8.65451 13.271C8.65868 13.3137 8.6611 13.3618 8.66293 13.3974C8.67282 13.5925 8.68629 13.8597 8.91607 13.9822C9.09065 14.0754 9.31486 14.0507 9.54707 13.9127C9.85894 13.7277 10.1796 13.3284 10.1929 12.8535C10.1941 12.8135 10.1874 12.7738 10.1734 12.7364C10.1594 12.6991 10.1382 12.6649 10.1112 12.6359C10.0841 12.6069 10.0517 12.5835 10.0158 12.5672C9.97984 12.5508 9.94107 12.5418 9.9017 12.5407Z" fill="#2514BE"/>
<path d="M9.32822 2.76481H2.66892C2.54582 2.76481 2.42776 2.81336 2.34072 2.89977C2.25367 2.98619 2.20477 3.10339 2.20477 3.22561C2.20477 3.34782 2.25367 3.46502 2.34072 3.55144C2.42776 3.63786 2.54582 3.68641 2.66892 3.68641H9.32822C9.45132 3.68641 9.56938 3.63786 9.65642 3.55144C9.74347 3.46502 9.79237 3.34782 9.79237 3.22561C9.79237 3.10339 9.74347 2.98619 9.65642 2.89977C9.56938 2.81336 9.45132 2.76481 9.32822 2.76481Z" fill="#2514BE"/>
<path d="M9.32819 5.06881H2.66889C2.54592 5.06901 2.42806 5.11765 2.34118 5.20404C2.2543 5.29044 2.2055 5.40753 2.2055 5.52961C2.2055 5.65169 2.2543 5.76878 2.34118 5.85517C2.42806 5.94157 2.54592 5.99021 2.66889 5.99041H9.32819C9.38921 5.99051 9.44965 5.97866 9.50605 5.95555C9.56245 5.93244 9.61371 5.89851 9.65689 5.85571C9.70007 5.81291 9.73433 5.76208 9.7577 5.70612C9.78107 5.65017 9.7931 5.59019 9.7931 5.52961C9.7931 5.46903 9.78107 5.40905 9.7577 5.35309C9.73433 5.29714 9.70007 5.2463 9.65689 5.20351C9.61371 5.16071 9.56245 5.12678 9.50605 5.10367C9.44965 5.08055 9.38921 5.06871 9.32819 5.06881Z" fill="#2514BE"/>
<path d="M7.3918 7.59918H2.54933C2.4722 7.59937 2.39828 7.64539 2.34378 7.72714C2.28929 7.80889 2.25869 7.91969 2.25869 8.0352C2.25869 8.15072 2.28929 8.26151 2.34378 8.34326C2.39828 8.42501 2.4722 8.47103 2.54933 8.47122H7.3918C7.43007 8.47131 7.46798 8.4601 7.50335 8.43824C7.53873 8.41637 7.57088 8.38426 7.59796 8.34377C7.62505 8.30327 7.64653 8.25517 7.66119 8.20222C7.67585 8.14928 7.6834 8.09252 7.6834 8.0352C7.6834 7.97788 7.67585 7.92112 7.66119 7.86818C7.64653 7.81523 7.62505 7.76713 7.59796 7.72663C7.57088 7.68614 7.53873 7.65404 7.50335 7.63217C7.46798 7.6103 7.43007 7.59909 7.3918 7.59918Z" fill="#2514BE"/>
<path d="M11.0714 5.10765H12V15.5432H11.0714V5.10765Z" fill="#2514BE"/>
</svg>
