<svg width="20" height="20" viewBox="0 0 20 20" fill="none" xmlns="http://www.w3.org/2000/svg">
<path d="M12.8944 6.06642H5.5579L6.93191 4.69055C7.18179 4.44032 7.27935 4.07577 7.18796 3.73403C7.09656 3.39228 6.8299 3.12526 6.48862 3.03374C6.14734 2.94222 5.78328 3.03991 5.5334 3.28996L2.49081 6.36121C2.30357 6.54596 2.19814 6.79824 2.19814 7.0615C2.19814 7.32475 2.30357 7.57703 2.49081 7.76179L5.5334 10.8085C5.78328 11.0586 6.14734 11.1562 6.48862 11.0647C6.8299 10.9732 7.09656 10.7062 7.18796 10.3644C7.27935 10.0227 7.1818 9.65814 6.93191 9.40792L5.5579 8.03205H12.8944C14.0741 8.13111 15.1245 8.81921 15.6876 9.86194C16.2507 10.9048 16.2507 12.1616 15.6876 13.2045C15.1245 14.2472 14.0741 14.9355 12.8944 15.0344H2.98155C2.63086 15.0344 2.30688 15.2217 2.13145 15.5259C1.95618 15.83 1.95618 16.2046 2.13145 16.5086C2.30688 16.8127 2.63085 17 2.98155 17H12.8944C14.7581 16.8749 16.429 15.8065 17.3267 14.1661C18.2244 12.5259 18.2244 10.5404 17.3267 8.90024C16.4292 7.26007 14.7582 6.19149 12.8944 6.06636V6.06642Z" fill="#6165DE"/>
</svg>
