<svg width="16" height="16" viewBox="0 0 16 16" fill="none" xmlns="http://www.w3.org/2000/svg">
<path d="M14.0695 2.12434C10.7313 1.804 8.84297 0.320337 8.84297 0.303477C8.35404 -0.101159 7.66278 -0.101159 7.17385 0.303477C7.15699 0.320337 5.26868 1.804 1.93043 2.12434C1.25604 2.19178 0.750244 2.74816 0.750244 3.42255C0.750244 12.8641 7.20757 15.7808 7.47733 15.8988C7.64592 15.9663 7.81452 16 7.99998 16C8.18544 16 8.35404 15.9663 8.52264 15.8988C8.79239 15.7808 15.2497 12.8641 15.2497 3.42255C15.2497 2.74816 14.7439 2.19178 14.0695 2.12434ZM7.98312 14.7524C7.88196 14.7018 6.71863 14.1791 5.45414 12.8809L5.62274 11.4141C5.7239 10.6048 6.39829 9.99789 7.20757 9.99789H8.77553C9.58481 9.99789 10.2761 10.6048 10.3604 11.4141L10.529 12.8809C9.28133 14.1791 8.10114 14.7018 7.98312 14.7524ZM7.99998 8.4805C7.19071 8.4805 6.53317 7.82297 6.53317 7.0137C6.53317 6.20443 7.19071 5.54689 7.99998 5.54689C8.80925 5.54689 9.46679 6.20443 9.46679 7.0137C9.46679 7.82297 8.80925 8.4805 7.99998 8.4805ZM11.6586 11.5321L11.6248 11.2624C11.5068 10.2171 10.8156 9.37408 9.90514 8.96944C10.4109 8.46365 10.7313 7.77239 10.7313 7.0137C10.7313 5.51317 9.50051 4.2824 7.99998 4.2824C6.49945 4.2824 5.26868 5.51317 5.26868 7.0137C5.26868 7.78925 5.58902 8.48051 6.09482 8.96944C5.18439 9.35722 4.49313 10.2171 4.37511 11.2624L4.34139 11.5321C3.11062 9.76185 2.04845 7.14858 2.06531 3.40569C5.87564 3.03477 7.96626 1.29821 8.0337 1.29821C8.118 1.36565 10.2255 3.05163 13.9515 3.40569L13.9852 3.43941C13.9852 7.16544 12.9062 9.77871 11.6586 11.5321Z" fill="#2514BE"/>
</svg>
