<svg width="16" height="18" viewBox="0 0 16 18" fill="none" xmlns="http://www.w3.org/2000/svg">
<path d="M2.13514 1C1.50822 1 1 1.52415 1 2.17073V13.878C1 14.5246 1.50822 15.0488 2.13514 15.0488H8.54317C8.42499 14.8035 8.33379 14.542 8.27357 14.2683H2.13514C1.92616 14.2683 1.75676 14.0936 1.75676 13.878V2.17073C1.75676 1.95521 1.92616 1.78049 2.13514 1.78049H11.2162C11.4252 1.78049 11.5946 1.95521 11.5946 2.17073V9.97561C11.8547 9.97561 12.108 10.0057 12.3514 10.0626V2.17073C12.3514 1.52415 11.8431 1 11.2162 1H2.13514Z" fill="#2514BE"/>
<path d="M12.5574 14.6679C12.512 14.6679 12.4666 14.6492 12.4303 14.6117L10.5051 12.6262C10.4324 12.5512 10.4324 12.4389 10.5051 12.3639C10.5777 12.289 10.6867 12.289 10.7593 12.3639L12.6845 14.3495C12.7572 14.4244 12.7572 14.5368 12.6845 14.6117C12.6482 14.6492 12.6028 14.6679 12.5574 14.6679Z" fill="#2514BE"/>
<path d="M10.6322 14.6679C10.5868 14.6679 10.5414 14.6492 10.5051 14.6117C10.4324 14.5368 10.4324 14.4244 10.5051 14.3495L12.4303 12.3639C12.5029 12.289 12.6119 12.289 12.6845 12.3639C12.7572 12.4389 12.7572 12.5512 12.6845 12.6262L10.7593 14.6117C10.723 14.6492 10.6776 14.6679 10.6322 14.6679Z" fill="#2514BE"/>
<path fill-rule="evenodd" clip-rule="evenodd" d="M11.5946 16.2195C13.0574 16.2195 14.2432 14.9965 14.2432 13.4878C14.2432 11.9791 13.0574 10.7561 11.5946 10.7561C10.1318 10.7561 8.94595 11.9791 8.94595 13.4878C8.94595 14.9965 10.1318 16.2195 11.5946 16.2195ZM11.5946 17C13.4753 17 15 15.4275 15 13.4878C15 11.5481 13.4753 9.97561 11.5946 9.97561C9.71384 9.97561 8.18919 11.5481 8.18919 13.4878C8.18919 15.4275 9.71384 17 11.5946 17Z" fill="#2514BE"/>
<path fill-rule="evenodd" clip-rule="evenodd" d="M9.7027 4.51219H3.64865V5.29268H9.7027V4.51219ZM3.64865 3.73171C3.2307 3.73171 2.89189 4.08114 2.89189 4.51219V5.29268C2.89189 5.72373 3.2307 6.07317 3.64865 6.07317H9.7027C10.1206 6.07317 10.4595 5.72373 10.4595 5.29268V4.51219C10.4595 4.08114 10.1206 3.73171 9.7027 3.73171H3.64865Z" fill="#2514BE"/>
<path d="M2.89189 8.02439C2.89189 7.80886 3.0613 7.63415 3.27027 7.63415H8.56757C8.77654 7.63415 8.94595 7.80886 8.94595 8.02439C8.94595 8.23992 8.77654 8.41463 8.56757 8.41463H3.27027C3.0613 8.41463 2.89189 8.23992 2.89189 8.02439Z" fill="#2514BE"/>
<path d="M2.89189 10.3659C2.89189 10.1503 3.0613 9.97561 3.27027 9.97561H6.2973C6.50627 9.97561 6.67568 10.1503 6.67568 10.3659C6.67568 10.5814 6.50627 10.7561 6.2973 10.7561H3.27027C3.0613 10.7561 2.89189 10.5814 2.89189 10.3659Z" fill="#2514BE"/>
<path d="M2.89189 12.7073C2.89189 12.4918 3.0613 12.3171 3.27027 12.3171H6.2973C6.50627 12.3171 6.67568 12.4918 6.67568 12.7073C6.67568 12.9228 6.50627 13.0976 6.2973 13.0976H3.27027C3.0613 13.0976 2.89189 12.9228 2.89189 12.7073Z" fill="#2514BE"/>
<path d="M11.5946 9.97561V2.17073C11.5946 1.95521 11.4252 1.78049 11.2162 1.78049H2.13514C1.92616 1.78049 1.75676 1.95521 1.75676 2.17073V13.878C1.75676 14.0936 1.92616 14.2683 2.13514 14.2683H8.27357C8.33379 14.542 8.42499 14.8035 8.54317 15.0488H2.13514C1.50822 15.0488 1 14.5246 1 13.878V2.17073C1 1.52415 1.50822 1 2.13514 1H11.2162C11.8431 1 12.3514 1.52415 12.3514 2.17073V10.0626C12.108 10.0057 11.8547 9.97561 11.5946 9.97561ZM11.5946 9.97561C13.4753 9.97561 15 11.5481 15 13.4878C15 15.4275 13.4753 17 11.5946 17C9.71384 17 8.18919 15.4275 8.18919 13.4878C8.18919 11.5481 9.71384 9.97561 11.5946 9.97561ZM12.5574 14.6679C12.512 14.6679 12.4666 14.6492 12.4303 14.6117L10.5051 12.6262C10.4324 12.5512 10.4324 12.4389 10.5051 12.3639C10.5777 12.289 10.6867 12.289 10.7593 12.3639L12.6845 14.3495C12.7572 14.4244 12.7572 14.5368 12.6845 14.6117C12.6482 14.6492 12.6028 14.6679 12.5574 14.6679ZM10.6322 14.6679C10.5868 14.6679 10.5414 14.6492 10.5051 14.6117C10.4324 14.5368 10.4324 14.4244 10.5051 14.3495L12.4303 12.3639C12.5029 12.289 12.6119 12.289 12.6845 12.3639C12.7572 12.4389 12.7572 12.5512 12.6845 12.6262L10.7593 14.6117C10.723 14.6492 10.6776 14.6679 10.6322 14.6679ZM14.2432 13.4878C14.2432 14.9965 13.0574 16.2195 11.5946 16.2195C10.1318 16.2195 8.94595 14.9965 8.94595 13.4878C8.94595 11.9791 10.1318 10.7561 11.5946 10.7561C13.0574 10.7561 14.2432 11.9791 14.2432 13.4878ZM3.64865 4.51219H9.7027V5.29268H3.64865V4.51219ZM2.89189 4.51219C2.89189 4.08114 3.2307 3.73171 3.64865 3.73171H9.7027C10.1206 3.73171 10.4595 4.08114 10.4595 4.51219V5.29268C10.4595 5.72373 10.1206 6.07317 9.7027 6.07317H3.64865C3.2307 6.07317 2.89189 5.72373 2.89189 5.29268V4.51219ZM3.27027 8.41463H8.56757C8.77654 8.41463 8.94595 8.23992 8.94595 8.02439C8.94595 7.80886 8.77654 7.63415 8.56757 7.63415H3.27027C3.0613 7.63415 2.89189 7.80886 2.89189 8.02439C2.89189 8.23992 3.0613 8.41463 3.27027 8.41463ZM3.27027 10.7561H6.2973C6.50627 10.7561 6.67568 10.5814 6.67568 10.3659C6.67568 10.1503 6.50627 9.97561 6.2973 9.97561H3.27027C3.0613 9.97561 2.89189 10.1503 2.89189 10.3659C2.89189 10.5814 3.0613 10.7561 3.27027 10.7561ZM3.27027 13.0976H6.2973C6.50627 13.0976 6.67568 12.9228 6.67568 12.7073C6.67568 12.4918 6.50627 12.3171 6.2973 12.3171H3.27027C3.0613 12.3171 2.89189 12.4918 2.89189 12.7073C2.89189 12.9228 3.0613 13.0976 3.27027 13.0976Z" stroke="#2514BE" stroke-width="0.3"/>
</svg>
