<svg width="108" height="40" viewBox="0 0 108 40" fill="none" xmlns="http://www.w3.org/2000/svg">
<path opacity="0.2" d="M8.32045 20.897L5.81612 35.6729C5.424 37.9905 9.06618 37.9725 12.6338 35.6292L31.6531 23.1373C35.223 20.794 36.3008 17.7296 33.6714 17.3794L16.9472 15.2318C14.1783 14.8765 8.64834 17.6945 8.32045 20.897Z" fill="#994242"/>
<path opacity="0.5" d="M30.5392 1.42677L13.062 16.9057C10.3148 19.3391 9.67719 22.8953 11.8592 23.5622L23.5531 27.1236C25.7447 27.7905 29.2811 25.115 30.1736 22.1176L35.8389 3.06195C36.7772 -0.0951203 33.4333 -1.11228 30.5464 1.44996" fill="#54CC90"/>
<path opacity="0.7" d="M23.6229 38.5562L24.2652 25.6421C24.3663 23.6104 22.5813 21.0533 20.9213 20.8576L12.0853 19.8018C10.4254 19.6035 10.0188 21.9006 11.3227 24.0971L19.6151 38.0773C20.9887 40.3948 23.5171 40.6936 23.6229 38.5562Z" fill="#EB956A"/>
<path opacity="0.7" d="M1.26939 12.7032L13.8535 27.788C15.8309 30.1597 18.5542 30.528 18.9486 28.4756L21.0537 17.5495C21.4481 15.4895 19.247 12.4199 16.9351 11.7839L2.22202 7.74869C-0.212513 7.08174 -0.813918 10.2079 1.25975 12.7032" fill="#2514BE"/>
<path d="M55.1697 16.0909C55.0786 15.3232 54.7091 14.7273 54.0614 14.303C53.4137 13.8788 52.6192 13.6667 51.6779 13.6667C50.9897 13.6667 50.3875 13.7778 49.8713 14C49.3602 14.2222 48.9604 14.5278 48.672 14.9167C48.3886 15.3056 48.2469 15.7475 48.2469 16.2424C48.2469 16.6566 48.3455 17.0126 48.5429 17.3106C48.7453 17.6035 49.0034 17.8485 49.3172 18.0455C49.6309 18.2374 49.9599 18.3965 50.304 18.5227C50.6481 18.6439 50.9644 18.7424 51.2528 18.8182L52.8317 19.2424C53.2365 19.3485 53.6869 19.4949 54.1829 19.6818C54.6838 19.8687 55.1621 20.1237 55.6175 20.447C56.078 20.7652 56.4576 21.1742 56.7561 21.6742C57.0547 22.1742 57.204 22.7879 57.204 23.5152C57.204 24.3535 56.9839 25.1111 56.5436 25.7879C56.1084 26.4646 55.4708 27.0025 54.6307 27.4015C53.7957 27.8005 52.7811 28 51.5868 28C50.4735 28 49.5095 27.8207 48.6947 27.4621C47.885 27.1035 47.2474 26.6035 46.7818 25.9621C46.3213 25.3207 46.0607 24.5758 46 23.7273H47.9432C47.9938 24.3131 48.1912 24.798 48.5353 25.1818C48.8845 25.5606 49.3248 25.8434 49.8561 26.0303C50.3925 26.2121 50.9694 26.303 51.5868 26.303C52.3054 26.303 52.9506 26.1869 53.5225 25.9545C54.0943 25.7172 54.5472 25.3889 54.8812 24.9697C55.2152 24.5455 55.3822 24.0505 55.3822 23.4848C55.3822 22.9697 55.238 22.5505 54.9495 22.2273C54.6611 21.904 54.2815 21.6414 53.8109 21.4394C53.3403 21.2374 52.8317 21.0606 52.2852 20.9091L50.3723 20.3636C49.1578 20.0152 48.1963 19.5177 47.4878 18.8712C46.7793 18.2247 46.4251 17.3788 46.4251 16.3333C46.4251 15.4646 46.6604 14.7071 47.131 14.0606C47.6067 13.4091 48.2443 12.904 49.0439 12.5455C49.8485 12.1818 50.7468 12 51.7386 12C52.7406 12 53.6313 12.1793 54.4106 12.5379C55.1899 12.8914 55.8073 13.3763 56.2627 13.9924C56.7232 14.6086 56.9661 15.3081 56.9914 16.0909H55.1697Z" fill="#2514BE"/>
<path d="M61.1541 27.7273V12.2121H66.407C67.6265 12.2121 68.6235 12.4318 69.3977 12.8712C70.177 13.3056 70.7539 13.8939 71.1284 14.6364C71.5029 15.3788 71.6901 16.2071 71.6901 17.1212C71.6901 18.0354 71.5029 18.8662 71.1284 19.6136C70.759 20.3611 70.1872 20.9571 69.4129 21.4015C68.6387 21.8409 67.6468 22.0606 66.4373 22.0606H62.6723V20.3939H66.3766C67.2116 20.3939 67.8821 20.25 68.3882 19.9621C68.8942 19.6742 69.2611 19.2854 69.4888 18.7955C69.7216 18.3005 69.838 17.7424 69.838 17.1212C69.838 16.5 69.7216 15.9444 69.4888 15.4545C69.2611 14.9646 68.8917 14.5808 68.3806 14.303C67.8695 14.0202 67.1913 13.8788 66.3462 13.8788H63.0367V27.7273H61.1541Z" fill="#2514BE"/>
<path d="M77.4602 12.2121V27.7273H75.5777V12.2121H77.4602Z" fill="#2514BE"/>
<path d="M94.5993 17.0606H92.7168C92.6055 16.5202 92.4107 16.0455 92.1323 15.6364C91.8591 15.2273 91.5251 14.8838 91.1303 14.6061C90.7407 14.3232 90.308 14.1111 89.8323 13.9697C89.3566 13.8283 88.8607 13.7576 88.3445 13.7576C87.4033 13.7576 86.5506 13.9949 85.7864 14.4697C85.0274 14.9444 84.4226 15.6439 83.9722 16.5682C83.5269 17.4924 83.3043 18.6263 83.3043 19.9697C83.3043 21.3131 83.5269 22.447 83.9722 23.3712C84.4226 24.2955 85.0274 24.995 85.7864 25.4697C86.5506 25.9444 87.4033 26.1818 88.3445 26.1818C88.8607 26.1818 89.3566 26.1111 89.8323 25.9697C90.308 25.8283 90.7407 25.6187 91.1303 25.3409C91.5251 25.0581 91.8591 24.7121 92.1323 24.303C92.4107 23.8889 92.6055 23.4141 92.7168 22.8788H94.5993C94.4576 23.6717 94.1995 24.3813 93.8251 25.0076C93.4506 25.6338 92.985 26.1667 92.4284 26.6061C91.8717 27.0404 91.2467 27.3712 90.5534 27.5985C89.8652 27.8258 89.1289 27.9394 88.3445 27.9394C87.0187 27.9394 85.8396 27.6162 84.8072 26.9697C83.7749 26.3232 82.9627 25.404 82.3706 24.2121C81.7785 23.0202 81.4825 21.6061 81.4825 19.9697C81.4825 18.3333 81.7785 16.9192 82.3706 15.7273C82.9627 14.5354 83.7749 13.6162 84.8072 12.9697C85.8396 12.3232 87.0187 12 88.3445 12C89.1289 12 89.8652 12.1136 90.5534 12.3409C91.2467 12.5682 91.8717 12.9015 92.4284 13.3409C92.985 13.7753 93.4506 14.3056 93.8251 14.9318C94.1995 15.553 94.4576 16.2626 94.5993 17.0606Z" fill="#2514BE"/>
<path d="M98.4964 27.7273V12.2121H107.879V13.8788H100.379V19.1212H107.393V20.7879H100.379V26.0606H108V27.7273H98.4964Z" fill="#2514BE"/>
</svg>
