<svg width="14" height="14" viewBox="0 0 14 14" fill="none" xmlns="http://www.w3.org/2000/svg">
<path d="M5.83333 1.16667C5.83333 0.522334 6.35567 -3.38697e-08 7 0C7.64433 3.38701e-08 8.16667 0.522335 8.16667 1.16667V12.8333C8.16667 13.4777 7.64433 14 7 14C6.35567 14 5.83333 13.4777 5.83333 12.8333L5.83333 1.16667Z" fill="#6165DE"/>
<path d="M1.16667 8.16667C0.522334 8.16667 5.49433e-08 7.64433 0 7C-5.49433e-08 6.35567 0.522334 5.83333 1.16667 5.83333H12.8333C13.4777 5.83333 14 6.35567 14 7C14 7.64433 13.4777 8.16667 12.8333 8.16667H1.16667Z" fill="#6165DE"/>
</svg>
