<svg width="16" height="18" viewBox="0 0 16 18" fill="#2514be" xmlns="http://www.w3.org/2000/svg">
<path d="M1.35 11.8194H2.155C2.33 12.9919 3.3275 13.9019 4.5525 13.9019H9.4V14.6325C9.4 14.8425 9.225 15 9.0325 15H2.7675C2.1725 15 1.7 15.49 1.7 16.1769V15.8231C1.7 16.4181 2.19 17 2.7675 17H13.9325C14.5275 17 15 16.51 15 15.9325V12.4844C15 11.8894 14.51 11.4169 13.9325 11.4169H13.4775C13.11 8.91437 11.3775 6.79688 9.0325 5.90438L10.135 4.80187C10.275 4.66187 10.275 4.45188 10.135 4.31188L9.82 3.99688L10.135 3.68188C10.7475 3.06938 10.7475 2.07188 10.135 1.45938C9.5225 0.846875 8.525 0.846875 7.9125 1.45938L7.5975 1.77438L7.2825 1.45938C7.1425 1.31938 6.9325 1.31938 6.7925 1.45938L2.2425 6.00938C2.1025 6.14938 2.1025 6.35938 2.2425 6.49938L2.575 6.83188L1.6825 7.72438C1.5425 7.86438 1.5425 8.07438 1.6825 8.21438L3.38 9.91188C3.52 10.0519 3.73 10.0519 3.87 9.91188L4.7625 9.01938L5.095 9.35188C5.235 9.49188 5.445 9.49188 5.585 9.35188L6.9325 8.00437C8.875 8.16187 10.485 9.56188 10.9225 11.4344H10.485C9.89 11.4344 9.4175 11.9244 9.4175 12.5019V13.2194H4.57C3.73 13.2194 3.03 12.6244 2.8725 11.8369H3.625C3.8175 11.8369 3.975 11.6794 3.975 11.4869C3.975 11.2944 3.8175 11.1369 3.625 11.1369H1.35C1.1575 11.1369 1 11.2944 1 11.4869C1 11.6794 1.1575 11.8194 1.35 11.8194ZM8.4025 1.94938C8.735 1.61688 9.295 1.61688 9.6275 1.94938C9.9775 2.29938 9.96 2.84188 9.6275 3.19188L9.3125 3.50688L8.07 2.26438L8.4025 1.94938ZM3.6075 9.15938L2.4175 7.96938L3.065 7.32188L4.255 8.51188L3.6075 9.15938ZM5.3225 8.59938C5.0775 8.35438 2.9425 6.21938 2.9775 6.25437L7.0375 2.19438C8.035 3.19187 8.5775 3.73438 9.3825 4.53938L5.3225 8.59938ZM7.545 7.35688L8.455 6.44688C10.695 7.16438 12.375 9.10687 12.76 11.4169H11.6225C11.22 9.35188 9.5925 7.75938 7.545 7.35688ZM10.1 12.4844C10.1 12.2744 10.275 12.1169 10.4675 12.1169H13.915C14.125 12.1169 14.2825 12.2919 14.2825 12.4844V15.95C14.2825 16.16 14.1075 16.3175 13.915 16.3175H2.7675C2.5575 16.3175 2.4 16.0331 2.4 15.8406V16.1944C2.4 15.875 2.575 15.7175 2.7675 15.7175H9.0325C9.6275 15.7175 10.1 15.2275 10.1 14.65V12.4844Z" fill="#2514be"/>
<path d="M12.2524 15.4769C12.9524 15.4769 13.5124 14.9169 13.5124 14.2169C13.5124 13.5169 12.9524 12.9569 12.2524 12.9569C11.5524 12.9569 10.9924 13.5169 10.9924 14.2169C10.9924 14.9169 11.5524 15.4769 12.2524 15.4769ZM12.2524 13.6569C12.5674 13.6569 12.8124 13.9019 12.8124 14.2169C12.8124 14.5319 12.5674 14.7769 12.2524 14.7769C11.9374 14.7769 11.6924 14.5319 11.6924 14.2169C11.6924 13.9194 11.9374 13.6569 12.2524 13.6569Z" fill="#2514be"/>
<path d="M1.35 11.8194H2.155C2.33 12.9919 3.3275 13.9019 4.5525 13.9019H9.4V14.6325C9.4 14.8425 9.225 15 9.0325 15H2.7675C2.1725 15 1.7 15.49 1.7 16.1769V15.8231C1.7 16.4181 2.19 17 2.7675 17H13.9325C14.5275 17 15 16.51 15 15.9325V12.4844C15 11.8894 14.51 11.4169 13.9325 11.4169H13.4775C13.11 8.91437 11.3775 6.79688 9.0325 5.90438L10.135 4.80187C10.275 4.66187 10.275 4.45188 10.135 4.31188L9.82 3.99688L10.135 3.68188C10.7475 3.06938 10.7475 2.07188 10.135 1.45938C9.5225 0.846875 8.525 0.846875 7.9125 1.45938L7.5975 1.77438L7.2825 1.45938C7.1425 1.31938 6.9325 1.31938 6.7925 1.45938L2.2425 6.00938C2.1025 6.14938 2.1025 6.35938 2.2425 6.49938L2.575 6.83188L1.6825 7.72438C1.5425 7.86438 1.5425 8.07438 1.6825 8.21438L3.38 9.91188C3.52 10.0519 3.73 10.0519 3.87 9.91188L4.7625 9.01938L5.095 9.35188C5.235 9.49188 5.445 9.49188 5.585 9.35188L6.9325 8.00437C8.875 8.16187 10.485 9.56188 10.9225 11.4344H10.485C9.89 11.4344 9.4175 11.9244 9.4175 12.5019V13.2194H4.57C3.73 13.2194 3.03 12.6244 2.8725 11.8369H3.625C3.8175 11.8369 3.975 11.6794 3.975 11.4869C3.975 11.2944 3.8175 11.1369 3.625 11.1369H1.35C1.1575 11.1369 1 11.2944 1 11.4869C1 11.6794 1.1575 11.8194 1.35 11.8194ZM8.4025 1.94938C8.735 1.61688 9.295 1.61688 9.6275 1.94938C9.9775 2.29938 9.96 2.84188 9.6275 3.19188L9.3125 3.50688L8.07 2.26438L8.4025 1.94938ZM3.6075 9.15938L2.4175 7.96938L3.065 7.32188L4.255 8.51188L3.6075 9.15938ZM5.3225 8.59938C5.0775 8.35438 2.9425 6.21938 2.9775 6.25437L7.0375 2.19438C8.035 3.19187 8.5775 3.73438 9.3825 4.53938L5.3225 8.59938ZM7.545 7.35688L8.455 6.44688C10.695 7.16438 12.375 9.10687 12.76 11.4169H11.6225C11.22 9.35188 9.5925 7.75938 7.545 7.35688ZM10.1 12.4844C10.1 12.2744 10.275 12.1169 10.4675 12.1169H13.915C14.125 12.1169 14.2825 12.2919 14.2825 12.4844V15.95C14.2825 16.16 14.1075 16.3175 13.915 16.3175H2.7675C2.5575 16.3175 2.4 16.0331 2.4 15.8406V16.1944C2.4 15.875 2.575 15.7175 2.7675 15.7175H9.0325C9.6275 15.7175 10.1 15.2275 10.1 14.65V12.4844Z" fill="#2514be" stroke-width="0.2"/>
<path d="M12.2524 15.4769C12.9524 15.4769 13.5124 14.9169 13.5124 14.2169C13.5124 13.5169 12.9524 12.9569 12.2524 12.9569C11.5524 12.9569 10.9924 13.5169 10.9924 14.2169C10.9924 14.9169 11.5524 15.4769 12.2524 15.4769ZM12.2524 13.6569C12.5674 13.6569 12.8124 13.9019 12.8124 14.2169C12.8124 14.5319 12.5674 14.7769 12.2524 14.7769C11.9374 14.7769 11.6924 14.5319 11.6924 14.2169C11.6924 13.9194 11.9374 13.6569 12.2524 13.6569Z" fill="#2514be" stroke-width="0.2"/>
</svg>
