<svg class="svg-icon" style="width: 1em; height: 1em;vertical-align: middle;fill: currentColor;overflow: hidden;" viewBox="0 0 1024 1024" version="1.1" xmlns="http://www.w3.org/2000/svg"><path d="M766.598 75.624c-112.55-65.312-250.07-87.553-385.693-51.212C110.437 96.883-50.07 374.89 22.4 645.357c72.472 270.468 350.479 430.975 620.946 358.504 270.467-72.472 430.975-350.479 358.503-620.946-0.211-0.789-0.424-1.577-0.639-2.363h-62.505a454.786 454.786 0 0 1 5.189 17.892c63.895 238.46-77.618 483.566-316.077 547.461-238.46 63.895-483.566-77.617-547.461-316.077-63.895-238.46 77.617-483.566 316.077-547.46 119.62-32.053 240.912-12.416 340.164 45.217l-42.383 73.409 217.66-6.997L809.104 2l-42.507 73.624z" fill="#2514be" /><path d="M442 447h140v-70c0-38.66-31.34-70-70-70s-70 31.34-70 70v70z m44 186.012V716h52v-82.988c25.786-10.321 44-35.54 44-65.012 0-38.66-31.34-70-70-70s-70 31.34-70 70c0 29.472 18.214 54.69 44 65.012zM390 447v-70c0-67.379 54.621-122 122-122 67.379 0 122 54.621 122 122v70h37c18.778 0 34 15.222 34 34v252c0 18.778-15.222 34-34 34H353c-18.778 0-34-15.222-34-34V481c0-18.778 15.222-34 34-34h37z" fill="#2514be" /></svg>