<svg width="18" height="12" viewBox="0 0 18 12" fill="none" xmlns="http://www.w3.org/2000/svg">
<path d="M17.9588 6.27945C18.0215 6.08219 18.0215 5.81918 17.896 5.62192C16.9857 3.87945 15.6988 2.46575 14.1607 1.51233C12.6227 0.526027 10.8335 0 9.01294 0C7.161 0 5.40323 0.526027 3.86517 1.51233C2.32712 2.46575 1.00879 3.87945 0.098512 5.62192C0.098512 5.65479 0.0671231 5.68767 0.0671231 5.75342C-0.0270434 5.95069 -0.0270434 6.18082 0.098512 6.41096C1.00879 8.12055 2.32712 9.53425 3.86517 10.4877C5.40323 11.474 7.161 12 8.98155 12C10.8335 12 12.5913 11.474 14.1293 10.4877C15.6674 9.53425 16.9857 8.12055 17.896 6.41096C17.9274 6.34521 17.9274 6.31233 17.9588 6.27945ZM13.376 2.86027C14.5688 3.61644 15.6046 4.66849 16.3893 5.98356C15.6046 7.33151 14.5688 8.38356 13.376 9.1726C12.0577 9.99452 10.551 10.4548 8.98155 10.4548C7.4435 10.4548 5.93684 9.99452 4.61851 9.1726C3.42573 8.38356 2.3899 7.33151 1.60518 6.01644C2.3899 4.70137 3.42573 3.61644 4.64989 2.86027C5.93684 2.03836 7.4435 1.57808 9.01294 1.57808C10.5824 1.57808 12.0577 2.03836 13.376 2.86027Z" fill="#6165DE"/>
<path d="M9.01463 3C8.16585 3 7.43415 3.35122 6.87805 3.87805C6.35122 4.43415 6 5.16585 6 6.01463C6 6.83415 6.35122 7.56585 6.87805 8.12195C7.43415 8.64878 8.16585 9 9.01463 9C9.83415 9 10.5659 8.64878 11.122 8.12195C11.6488 7.56585 12 6.83415 12 6.01463C12 5.19512 11.6488 4.43415 11.122 3.87805C10.5659 3.35122 9.83415 3 9.01463 3ZM7.87317 4.87317C8.16585 4.58049 8.57561 4.40488 9.01463 4.40488C9.45366 4.40488 9.83415 4.58049 10.1268 4.87317C10.4195 5.16585 10.5951 5.57561 10.5951 6.01463C10.5951 6.45366 10.4195 6.83415 10.1268 7.12683C9.83415 7.41951 9.45366 7.59512 9.01463 7.59512C8.57561 7.59512 8.16585 7.41951 7.87317 7.12683C7.58049 6.83415 7.40488 6.45366 7.40488 6.01463C7.40488 5.57561 7.58049 5.16585 7.87317 4.87317Z" fill="#6165DE"/>
</svg>
