<svg xmlns="http://www.w3.org/2000/svg" data-name="Layer 1" viewBox="0 0 128 128"><path d="m1.042 107.756 11 6a2.002 2.002 0 0 0 1.916 0l11-6A2 2 0 0 0 26 106V94a2 2 0 0 0-1.042-1.756l-11-6a1.998 1.998 0 0 0-1.916 0l-11 6A2 2 0 0 0 0 94v12a2 2 0 0 0 1.042 1.756zM51 94v12a2 2 0 0 0 1.042 1.756l11 6a2.002 2.002 0 0 0 1.916 0l11-6A2 2 0 0 0 77 106V94a2 2 0 0 0-1.042-1.756l-11-6a1.998 1.998 0 0 0-1.916 0l-11 6A2 2 0 0 0 51 94zm75.958-1.756-11-6a1.998 1.998 0 0 0-1.916 0l-11 6A2 2 0 0 0 102 94v12a2 2 0 0 0 1.042 1.756l11 6a2.002 2.002 0 0 0 1.916 0l11-6A2 2 0 0 0 128 106V94a2 2 0 0 0-1.042-1.756zM33 77a2 2 0 0 0 2 2h6a2 2 0 0 0 0-4h-6a2 2 0 0 0-2 2zm52 0a2 2 0 0 0 2 2h6a2 2 0 0 0 0-4h-6a2 2 0 0 0-2 2zm6.953-33H111a2.003 2.003 0 0 1 2 2v36.652a6.555 6.555 0 0 1 4-.536V46a6.007 6.007 0 0 0-6-6H91.953c.014.224.047.442.047.67v2.66c0 .228-.033.446-.047.67zM66 82.353v-8.4c-.222.014-.44.047-.665.047h-2.667c-.227 0-.445-.033-.668-.047v8.4a5.99 5.99 0 0 1 4 0zM81.833 98H98v4H81.833zM36.047 40H17a6.007 6.007 0 0 0-6 6v36.353a5.99 5.99 0 0 1 4 0V46a2.003 2.003 0 0 1 2-2h19.047c-.014-.224-.047-.442-.047-.67v-2.66c0-.228.033-.446.047-.67ZM30.833 98h15.333v4H30.833zM42.37 38A2.53 2.53 0 0 0 40 40.67v2.66A2.53 2.53 0 0 0 42.37 46h3.4a18.642 18.642 0 0 0 2.51 6.06l-2.41 2.41a2.528 2.528 0 0 0 .22 3.56l1.88 1.88a2.82 2.82 0 0 0 1.98.85 2.182 2.182 0 0 0 1.58-.64l2.41-2.4A18.642 18.642 0 0 0 60 60.23v3.4A2.53 2.53 0 0 0 62.67 66h2.66A2.53 2.53 0 0 0 68 63.63v-3.4a18.642 18.642 0 0 0 6.06-2.51l2.41 2.4a2.182 2.182 0 0 0 1.58.64 2.82 2.82 0 0 0 1.98-.85l1.88-1.88a2.518 2.518 0 0 0 .21-3.56l-2.4-2.41A18.642 18.642 0 0 0 82.23 46h3.4A2.53 2.53 0 0 0 88 43.33v-2.66A2.53 2.53 0 0 0 85.63 38h-3.4a18.641 18.641 0 0 0-2.51-6.06l2.4-2.4a2.53 2.53 0 0 0-.21-3.57l-1.88-1.88a2.838 2.838 0 0 0-1.98-.85 2.182 2.182 0 0 0-1.58.64l-2.41 2.4A18.645 18.645 0 0 0 68 23.77v-3.4A2.53 2.53 0 0 0 65.33 18h-2.66A2.53 2.53 0 0 0 60 20.37v3.4a18.645 18.645 0 0 0-6.06 2.51l-2.41-2.4a2.182 2.182 0 0 0-1.58-.64 2.838 2.838 0 0 0-1.98.85l-1.88 1.88a2.54 2.54 0 0 0-.22 3.57l2.41 2.4A18.641 18.641 0 0 0 45.77 38ZM64 31a11 11 0 1 1-11 10.998A10.999 10.999 0 0 1 64 31Z" fill="#6165DE"/></svg>