<svg width="512" height="512" viewBox="0 0 512 512" fill="none" xmlns="http://www.w3.org/2000/svg">
<rect width="512" height="512" rx="100" fill="white"/>
<path opacity="0.2" d="M154.834 265.419L128.698 420.566C124.606 444.9 162.616 444.711 199.849 420.106L398.337 288.942C435.594 264.337 446.842 232.161 419.401 228.484L244.864 205.933C215.967 202.203 158.256 231.792 154.834 265.419Z" fill="#994242"/>
<path opacity="0.5" d="M386.713 60.981L204.318 223.509C175.647 249.06 168.994 286.401 191.765 293.403L313.806 330.798C336.677 337.8 373.583 309.707 382.898 278.235L442.022 78.1505C451.814 45.0012 416.916 34.3211 386.789 61.2245" fill="#54CC90"/>
<path opacity="0.7" d="M314.533 450.84L321.237 315.242C322.291 293.909 303.662 267.06 286.339 265.005L194.124 253.919C176.801 251.837 172.558 275.956 186.166 299.019L272.707 445.811C287.042 470.145 313.429 473.282 314.533 450.84Z" fill="#EB956A"/>
<path opacity="0.7" d="M81.2475 179.383L212.578 337.774C233.214 362.676 261.635 366.543 265.752 344.993L287.72 230.269C291.837 208.639 268.865 176.409 244.738 169.73L91.1894 127.361C65.7822 120.358 59.5058 153.183 81.147 179.383" fill="#2514BE"/>
</svg>
