<svg width="192" height="192" viewBox="0 0 192 192" fill="none" xmlns="http://www.w3.org/2000/svg">
<rect width="192" height="192" rx="50" fill="white"/>
<path opacity="0.2" d="M61.9865 99.1395L53.2619 150.855C51.8959 158.967 64.5845 158.903 77.0135 150.702L143.272 106.981C155.709 98.7789 159.464 88.0535 150.304 86.828L92.0401 79.3111C82.3939 78.0675 63.1288 87.9308 61.9865 99.1395Z" fill="#994242"/>
<path opacity="0.5" d="M139.392 30.9937L78.5053 85.1697C68.9345 93.6868 66.7133 106.134 74.315 108.468L115.054 120.933C122.689 123.267 135.009 113.902 138.118 103.412L157.855 36.7168C161.124 25.6671 149.475 22.107 139.417 31.0748" fill="#54CC90"/>
<path opacity="0.7" d="M115.297 160.947L117.535 115.747C117.887 108.636 111.668 99.6867 105.886 99.0016L75.1027 95.3064C69.3199 94.6123 67.9034 102.652 72.446 110.34L101.335 159.27C106.12 167.382 114.929 168.427 115.297 160.947Z" fill="#EB956A"/>
<path opacity="0.7" d="M37.4223 70.4611L81.2626 123.258C88.1515 131.559 97.6388 132.848 99.0131 125.664L106.347 87.4231C107.721 80.213 100.052 69.4695 91.9985 67.2435L40.7411 53.1203C32.2596 50.786 30.1645 61.7277 37.3887 70.4611" fill="#2514BE"/>
</svg>
